<svg width="14" height="13" viewBox="0 0 14 13" fill="none" xmlns="http://www.w3.org/2000/svg">
<path d="M0.786865 5.59345H4.02435V12.2415H1.60554L0.786865 5.59345Z" fill="#DF4670"/>
<path d="M6.70597 0.756812H7.16182C7.4351 0.756812 8.19446 1.80856 8.19446 2.87211C8.19446 3.34545 7.77815 4.71 7.61767 5.19515C7.58627 5.28723 7.59906 5.38992 7.65488 5.46901C7.7107 5.5481 7.80141 5.59177 7.89676 5.59177H12.66C12.9879 5.59177 13.2554 5.86327 13.2554 6.19614C13.2554 6.52902 12.9879 6.80051 12.66 6.80051H12.3623C12.1971 6.80051 12.0646 6.93508 12.0646 7.1027C12.0646 7.27031 12.1971 7.40488 12.3623 7.40488C12.6902 7.40488 12.9577 7.67637 12.9577 8.00925C12.9577 8.34213 12.6902 8.61362 12.3623 8.61362H12.0646C11.8994 8.61362 11.7669 8.74819 11.7669 8.9158C11.7669 9.08342 11.8994 9.21799 12.0646 9.21799C12.3925 9.21799 12.66 9.48948 12.66 9.82236C12.66 10.1552 12.3925 10.4267 12.0646 10.4267H11.4692C11.304 10.4267 11.1715 10.5613 11.1715 10.7289C11.1715 10.8965 11.304 11.0311 11.4692 11.0311C11.7971 11.0311 12.0646 11.3026 12.0646 11.6355C12.0646 11.9683 11.7971 12.2398 11.4692 12.2398H5.81287C5.6489 12.2398 5.51517 12.1041 5.51517 11.9377C5.51517 11.77 5.38144 11.6355 5.21747 11.6355H4.62207V6.49833H4.77092C4.88372 6.49833 4.98954 6.43104 5.04071 6.32835L6.67806 3.00431C6.69899 2.963 6.70597 2.91932 6.70597 2.87211V0.756812Z" fill="#FBDCD2"/>
<path fill-rule="evenodd" clip-rule="evenodd" d="M0.00331457 5.34789C-0.0127765 5.2154 0.0305587 5.08671 0.115062 4.99043C0.199188 4.89458 0.32106 4.83496 0.451699 4.83496H4.32179C4.53531 4.83496 4.71461 4.98696 4.76014 5.18993L5.95616 2.76185V0.456299C5.95616 0.204747 6.15786 0 6.40568 0H7.15924C7.41053 0 7.64708 0.122569 7.85302 0.302137C8.06005 0.482661 8.24849 0.731087 8.40735 1.01011C8.72411 1.56646 8.9391 2.27272 8.9391 2.87378C8.9391 3.13966 8.85864 3.53992 8.76063 3.93376C8.68235 4.24829 8.59002 4.56956 8.5098 4.83496H12.6574C13.3983 4.83496 14 5.44577 14 6.19781C14 6.63223 13.7991 7.02248 13.4865 7.27253C13.623 7.48491 13.7023 7.73737 13.7023 8.01093C13.7023 8.44534 13.5014 8.83559 13.1888 9.08564C13.3253 9.29802 13.4046 9.55048 13.4046 9.82404C13.4046 10.3532 13.1041 10.8135 12.6695 11.0395C12.7574 11.2189 12.8092 11.421 12.8092 11.6371C12.8092 12.3892 12.2075 13 11.4666 13H5.81029C5.39482 13 5.03199 12.753 4.86274 12.3956H4.77132V12.5437C4.77132 12.7968 4.56922 13 4.32179 13H1.3448C1.11988 13 0.924751 12.8305 0.896443 12.6006L0.00331457 5.34789ZM6.85521 0.912598V2.87378C6.85521 2.93638 6.84595 3.00605 6.81093 3.07559L5.17393 6.39894C5.09794 6.55145 4.94149 6.65294 4.77132 6.6541V11.483H5.21489C5.46232 11.483 5.66441 11.6862 5.66441 11.9393C5.66441 12.0207 5.73017 12.0874 5.81029 12.0874H11.4666C11.7107 12.0874 11.9101 11.8849 11.9101 11.6371C11.9101 11.3894 11.7107 11.1869 11.4666 11.1869C11.2176 11.1869 11.017 10.9833 11.017 10.7306C11.017 10.4779 11.2176 10.2743 11.4666 10.2743H12.062C12.3061 10.2743 12.5055 10.0718 12.5055 9.82404C12.5055 9.57628 12.3061 9.37378 12.062 9.37378C11.813 9.37378 11.6124 9.17021 11.6124 8.91748C11.6124 8.66475 11.813 8.46118 12.062 8.46118H12.3597C12.6038 8.46118 12.8032 8.25869 12.8032 8.01093C12.8032 7.76317 12.6038 7.56067 12.3597 7.56067C12.1107 7.56067 11.9101 7.3571 11.9101 7.10437C11.9101 6.85163 12.1107 6.64807 12.3597 6.64807H12.6574C12.9015 6.64807 13.1009 6.44557 13.1009 6.19781C13.1009 5.95005 12.9015 5.74756 12.6574 5.74756H7.89418C7.75369 5.74756 7.61536 5.68297 7.52888 5.56043C7.44318 5.43902 7.42494 5.28406 7.47135 5.14717C7.55089 4.90668 7.69407 4.44748 7.81721 3.99024C7.87884 3.76139 7.93503 3.53459 7.9757 3.33674C8.01699 3.13585 8.04005 2.9751 8.04005 2.87378C8.04005 2.37657 7.8615 1.87423 7.64638 1.49406C7.53916 1.30457 7.4258 1.15069 7.32666 1.0465C7.27692 0.994212 7.23373 0.957586 7.19955 0.935118C7.17061 0.916101 7.15627 0.912598 7.15627 0.912598H6.85521ZM0.958596 5.74756L1.73931 12.0874H3.87226V5.74756H0.958596Z" fill="#626262"/>
</svg>
